<?xml version="1.0" standalone="no"?>
<!DOCTYPE svg PUBLIC "-//W3C//DTD SVG 20010904//EN"
 "http://www.w3.org/TR/2001/REC-SVG-20010904/DTD/svg10.dtd">
<svg version="1.0" xmlns="http://www.w3.org/2000/svg"
 width="570.000000pt" height="570.000000pt" viewBox="0 0 570.000000 570.000000"
 preserveAspectRatio="xMidYMid meet">
<metadata>
Created by potrace 1.14, written by Peter Selinger 2001-2017
</metadata>
<g transform="translate(0.000000,570.000000) scale(0.100000,-0.100000)"
fill="#000000" stroke="none">
<path d="M3670 5685 c-122 -34 -227 -126 -296 -259 -20 -39 -38 -73 -40 -75
-2 -2 -17 8 -34 22 -17 15 -37 24 -44 21 -8 -3 -24 -31 -37 -62 -12 -31 -26
-61 -30 -66 -4 -4 -16 11 -26 34 l-18 42 -28 -22 c-19 -15 -45 -23 -86 -25
-50 -4 -63 0 -92 20 -18 14 -38 25 -45 25 -7 0 -32 -25 -56 -56 -24 -31 -58
-65 -75 -76 l-33 -20 0 30 c0 48 -25 46 -70 -5 -22 -25 -42 -44 -44 -42 -2 2
-11 19 -20 37 -21 41 -35 35 -101 -43 -26 -30 -51 -55 -56 -55 -5 0 -11 11
-15 25 -11 45 -26 47 -88 9 l-58 -35 7 38 c21 100 -2 121 -54 48 -18 -25 -35
-45 -39 -45 -4 1 -16 15 -27 33 -11 18 -27 32 -35 32 -8 0 -27 -22 -41 -48
l-26 -48 -33 50 c-34 54 -37 56 -59 42 -11 -7 -12 -17 -2 -54 19 -76 16 -82
-23 -58 -18 12 -41 21 -50 21 -23 0 -20 -30 6 -57 33 -35 16 -36 -26 -1 -47
38 -63 32 -86 -36 l-15 -47 -20 27 -20 27 -23 -24 c-12 -13 -28 -32 -35 -42
-11 -16 -16 -15 -84 13 -204 86 -398 54 -549 -92 -187 -179 -282 -457 -220
-638 28 -81 107 -155 218 -205 l87 -39 -35 -39 c-43 -47 -41 -69 9 -81 20 -5
37 -13 37 -17 0 -4 -13 -17 -30 -29 -16 -12 -30 -28 -30 -35 0 -8 24 -28 54
-46 l53 -32 -15 -38 c-19 -49 -12 -65 32 -73 19 -4 38 -11 41 -16 3 -5 -5 -29
-17 -54 -29 -61 -31 -59 119 -117 22 -8 22 -10 -29 -94 -28 -47 -48 -88 -44
-92 3 -4 36 -10 73 -15 36 -4 67 -9 68 -10 2 -2 -2 -49 -8 -106 -13 -127 -7
-139 55 -103 37 21 40 21 33 5 -30 -72 -30 -75 -15 -84 8 -5 39 -7 68 -3 49 5
53 4 50 -13 -2 -16 6 -21 50 -29 l52 -10 -27 -27 c-22 -23 -24 -29 -13 -42 7
-9 21 -16 30 -16 44 0 50 -10 50 -76 0 -81 11 -87 86 -44 56 31 57 31 50 8 -4
-12 -10 -42 -13 -65 -5 -40 -4 -42 23 -48 16 -4 33 -8 38 -9 5 -1 -11 -14 -35
-28 -68 -40 -295 -203 -384 -276 -137 -113 -249 -219 -336 -318 -46 -53 -108
-112 -137 -131 -79 -53 -102 -99 -114 -234 -28 -306 81 -467 341 -504 47 -7
75 -13 63 -14 -84 -4 -362 -102 -430 -151 -28 -20 -54 -30 -89 -32 l-48 -3
-22 -55 c-12 -30 -25 -55 -30 -56 -4 -1 -21 -5 -36 -8 -21 -5 -33 -18 -47 -49
-31 -68 -25 -87 11 -34 20 30 38 47 51 47 33 0 75 -31 98 -72 16 -29 27 -38
43 -36 33 5 30 21 -13 75 -22 28 -44 61 -48 73 -19 50 14 99 57 85 10 -3 32
-28 49 -55 30 -48 54 -62 67 -39 4 5 -5 28 -20 49 -37 54 -31 71 40 99 47 19
80 24 150 25 83 1 96 -2 157 -32 84 -41 173 -134 222 -233 31 -62 36 -81 36
-144 0 -63 -5 -82 -35 -141 -45 -91 -109 -162 -200 -223 -103 -68 -173 -94
-260 -94 -171 0 -327 140 -365 328 -24 124 -41 191 -51 205 -19 29 13 -264 36
-330 52 -147 198 -240 376 -240 139 0 257 43 494 180 107 61 347 217 415 270
19 15 48 35 65 46 28 18 29 18 22 1 -6 -17 -2 -18 57 -12 93 10 103 4 142 -81
l34 -75 32 17 c18 9 48 30 66 45 38 33 75 37 127 12 37 -18 55 -13 36 11 -29
35 -67 39 -140 17 -39 -12 -77 -24 -85 -27 -11 -4 -20 9 -33 46 -26 74 -55
103 -98 98 -33 -4 -34 -3 -37 37 -3 37 -6 42 -55 65 -28 14 -60 33 -70 43 -21
19 -68 23 -78 7 -11 -19 -25 -10 -39 25 -19 44 -39 52 -81 32 l-33 -16 5 59
c5 49 1 70 -21 122 -64 154 -61 312 7 401 69 91 90 178 63 269 -20 71 -21 128
-2 128 14 0 46 36 46 52 0 5 -6 8 -14 8 -16 0 -26 21 -26 53 -1 22 -1 22 -20
-2 -12 -13 -20 -38 -20 -60 0 -20 -5 -43 -10 -51 -8 -12 -12 -11 -32 7 -52 47
-94 54 -144 24 -30 -18 -30 -18 -60 5 -49 41 -94 48 -158 25 l-56 -19 -35 35
c-34 34 -38 35 -91 31 -30 -3 -53 -2 -52 2 6 15 225 214 311 283 116 92 266
199 382 270 68 42 96 54 116 50 16 -3 53 7 98 26 l71 30 -5 -37 c-3 -20 -12
-85 -19 -144 -16 -123 -39 -174 -97 -212 -35 -24 -37 -27 -35 -78 l1 -54 44
76 c90 154 102 180 113 241 13 74 56 129 138 173 l50 27 0 -64 c0 -35 3 -66 6
-70 12 -12 50 15 83 59 18 24 36 44 40 44 4 0 15 -17 25 -37 43 -92 59 -98
100 -36 l24 35 7 -51 c4 -28 11 -53 15 -56 13 -8 38 22 45 55 10 47 25 46 25
-2 0 -24 4 -50 10 -58 7 -12 12 -12 29 4 12 11 21 24 22 30 0 6 10 33 23 60
l22 50 32 -57 c18 -32 37 -55 42 -52 6 3 10 27 10 52 l0 46 70 -67 c38 -37 75
-66 82 -64 7 3 19 26 26 52 l13 47 60 -76 c40 -50 66 -75 77 -73 9 2 34 36 56
75 l39 72 27 -29 c16 -17 32 -30 38 -30 10 0 28 40 34 75 3 16 10 9 32 -30 50
-87 57 -96 69 -92 8 2 16 52 24 137 7 73 15 135 19 139 3 3 32 -22 65 -57 49
-54 60 -72 69 -120 27 -133 33 -151 52 -168 18 -17 21 -17 48 -2 l28 16 6 -50
c11 -81 52 -198 96 -270 22 -37 40 -80 40 -96 0 -16 26 -80 58 -143 48 -94 62
-114 80 -113 19 0 22 -5 22 -38 0 -56 15 -78 51 -78 26 0 30 -3 24 -17 -25
-59 -34 -92 -35 -126 0 -46 -6 -58 -82 -161 -54 -72 -118 -183 -118 -203 0 -4
11 9 25 30 14 20 30 37 35 37 15 0 235 -79 331 -119 l91 -39 -57 -26 c-172
-79 -287 -211 -319 -368 -6 -32 -16 -58 -21 -56 -6 1 -56 53 -112 114 -111
122 -110 116 -36 153 41 20 76 58 68 71 -3 4 -25 13 -49 19 -28 7 -46 17 -48
28 -3 14 -8 10 -22 -15 -17 -32 -17 -35 0 -54 18 -19 17 -20 -21 -54 -22 -19
-67 -48 -99 -64 -72 -36 -100 -61 -134 -119 l-25 -44 -20 27 c-23 32 -25 32
-72 0 l-37 -25 -15 21 c-10 14 -21 18 -38 14 -12 -3 -26 -1 -30 5 -4 8 -32 9
-83 5 -68 -6 -80 -4 -102 14 -21 17 -24 27 -22 72 l2 52 -40 -51 c-22 -28 -53
-57 -70 -66 -36 -19 -99 -19 -169 0 l-55 14 -39 -35 c-37 -34 -42 -36 -106
-34 -93 4 -96 3 -109 -25 -17 -38 -16 -39 24 -15 28 18 46 22 90 18 31 -3 88
1 127 8 40 7 98 13 130 13 71 1 115 19 150 60 l27 33 0 -34 c0 -60 14 -68 151
-88 85 -12 127 -23 133 -33 9 -13 15 -11 43 14 40 35 66 37 87 7 15 -21 16
-21 37 -2 11 10 32 38 46 62 33 57 68 82 111 82 31 0 43 -8 82 -52 175 -201
342 -349 459 -407 99 -50 147 -60 281 -63 142 -2 209 14 316 78 75 44 110 85
129 151 14 46 14 63 0 175 -18 138 -27 183 -56 280 -21 73 -45 98 -91 98 -20
0 -40 13 -71 45 -42 43 -46 45 -101 45 -50 0 -90 14 -313 105 -140 58 -259
105 -264 105 -17 0 -9 16 21 45 l30 29 1 -30 c1 -57 39 48 45 129 4 42 10 80
14 87 4 7 54 -20 141 -75 194 -124 287 -165 376 -165 77 0 227 81 313 170 59
61 92 140 94 225 1 81 -22 122 -91 155 -30 14 -51 31 -51 40 3 43 -6 64 -47
110 -25 28 -54 70 -66 93 -29 58 -56 85 -113 114 -27 14 -140 91 -250 171
-259 188 -349 247 -485 316 -61 31 -111 61 -111 67 0 6 7 42 16 81 l16 72 64
-69 c54 -58 66 -66 79 -55 8 7 15 21 15 31 0 10 5 53 11 95 l12 77 20 -38 c18
-37 20 -38 33 -20 9 13 14 48 14 107 0 48 3 88 8 88 4 0 16 -7 26 -15 11 -8
28 -15 38 -15 15 0 18 8 18 51 l0 51 54 -4 c67 -4 64 7 -4 16 -28 4 -57 9 -66
13 -14 5 -15 -2 -9 -53 l7 -59 -51 50 -51 49 0 -78 c0 -76 -1 -78 -18 -62 -18
15 -19 15 -29 -7 -6 -13 -18 -61 -28 -108 -9 -46 -18 -90 -21 -98 -3 -10 -26
9 -69 55 -73 78 -77 78 -96 -19 -14 -67 -24 -79 -33 -37 -3 18 -12 30 -21 30
-12 0 -15 -17 -15 -102 l0 -103 -76 80 c-63 67 -77 77 -84 64 -6 -11 -6 -37 0
-69 6 -29 10 -57 10 -63 0 -5 -24 11 -52 35 -29 25 -63 50 -75 57 -30 15 -37
0 -54 -113 l-13 -89 -19 24 c-66 84 -81 88 -98 29 -10 -33 -15 -38 -30 -30
-29 16 -47 1 -90 -71 -22 -38 -42 -69 -44 -69 -2 0 -20 27 -40 60 -20 34 -48
74 -62 91 -32 38 -48 27 -63 -48 l-12 -55 -63 61 c-35 34 -68 61 -74 61 -5 0
-16 -9 -24 -20 -13 -19 -14 -19 -36 10 -12 17 -26 30 -32 30 -6 0 -20 -22 -32
-50 -11 -28 -25 -50 -29 -50 -4 0 -8 22 -8 49 0 97 -20 106 -56 24 l-26 -57
-15 31 c-18 38 -34 34 -64 -13 -11 -19 -22 -34 -24 -34 -2 0 -18 27 -36 60
-17 33 -38 60 -45 60 -7 0 -32 -25 -56 -55 l-43 -56 -5 70 -5 70 -94 -60 c-51
-33 -95 -59 -96 -57 -2 2 5 23 16 47 18 40 25 81 14 81 -2 0 -28 -9 -57 -21
-90 -36 -129 -49 -125 -41 50 97 44 113 -43 105 -33 -3 -60 -4 -60 -2 0 3 13
36 30 74 16 39 30 76 30 83 0 22 -34 13 -100 -27 -36 -22 -68 -37 -72 -35 -3
2 -4 29 -1 59 6 52 5 55 -21 65 l-27 10 20 26 c28 35 26 50 -5 58 -19 5 -24
11 -19 24 21 52 -6 61 -123 43 -36 -6 -68 -9 -70 -7 -2 2 6 22 17 45 12 22 21
52 21 67 0 23 -3 25 -27 20 -14 -4 -45 -20 -68 -36 l-42 -29 14 87 c18 119 15
128 -47 136 -28 4 -55 4 -60 1 -18 -11 -10 8 31 77 22 38 39 76 37 85 -2 10
-33 29 -73 47 -87 37 -82 33 -65 59 48 77 46 89 -16 113 -44 17 -53 27 -34 39
6 3 10 19 10 35 0 24 -8 35 -40 56 -45 30 -48 39 -19 54 25 14 40 51 27 67 -6
7 -25 15 -44 19 -19 3 -34 8 -34 11 0 3 14 18 31 34 17 16 29 36 27 46 -2 11
-42 38 -100 68 -128 67 -170 103 -204 171 -23 48 -28 69 -27 133 3 212 158
471 344 571 62 34 68 35 169 35 95 0 115 -4 208 -37 l102 -36 29 24 30 25 27
-28 c25 -25 27 -26 40 -8 7 10 18 41 25 70 l12 53 73 -64 c89 -77 109 -82 101
-23 -4 31 -1 45 13 59 11 11 16 27 13 39 -5 21 11 29 22 11 12 -20 32 -9 54
30 l23 41 20 -26 c11 -14 30 -25 43 -25 16 0 23 -5 19 -13 -2 -7 4 -21 14 -30
17 -15 21 -14 77 23 33 22 65 40 70 40 6 0 18 -14 27 -30 25 -44 48 -38 105
30 l51 59 23 -30 24 -31 38 26 c31 21 42 24 58 15 31 -16 67 3 139 76 l63 63
39 -26 c34 -22 44 -24 68 -15 41 15 130 -6 143 -35 13 -29 39 -37 54 -16 7 9
22 46 33 80 12 35 25 64 28 64 4 0 21 -17 39 -37 28 -34 33 -36 46 -23 8 8 22
38 31 67 22 67 82 158 135 206 126 113 332 139 526 66 300 -114 396 -248 351
-490 -21 -114 -21 -116 18 -155 l34 -34 -29 0 c-16 0 -29 -4 -29 -8 0 -5 11
-36 25 -70 30 -74 31 -85 5 -53 -17 19 -23 21 -35 11 -8 -7 -15 -15 -15 -19 0
-3 32 -55 70 -115 77 -121 77 -126 -2 -126 -26 0 -49 -4 -52 -9 -3 -5 8 -39
24 -76 28 -62 29 -69 13 -80 -15 -11 -12 -19 29 -81 48 -72 71 -114 65 -114
-2 0 -29 9 -59 19 -57 20 -91 15 -71 -11 5 -7 30 -38 55 -70 25 -31 51 -73 58
-95 7 -21 31 -74 52 -117 l40 -79 -31 6 -31 6 25 -66 c14 -36 23 -68 20 -71
-2 -3 -18 1 -35 8 -51 21 -51 14 8 -147 3 -9 -8 -13 -37 -13 -34 0 -41 -3 -41
-19 0 -11 -9 -23 -20 -26 -25 -8 -25 -11 5 -60 33 -53 31 -65 -3 -31 -24 22
-31 24 -40 13 -7 -8 -9 -16 -6 -19 10 -11 62 -218 54 -218 -4 0 -22 22 -39 49
-28 43 -57 68 -67 58 -4 -4 63 -207 70 -215 3 -2 2 22 -1 54 -5 57 -5 58 12
37 17 -24 49 -31 60 -13 3 5 -2 46 -11 91 l-18 82 27 23 c24 21 27 30 27 89
l0 65 29 0 c37 0 44 18 26 77 -19 62 -19 61 13 65 24 3 27 7 26 38 -1 19 -5
45 -9 57 -5 16 -2 23 14 28 27 8 27 36 -1 91 -19 38 -20 47 -8 69 13 25 1 45
-128 198 -24 28 2 20 59 -18 51 -35 79 -39 79 -13 0 7 -31 60 -69 117 -59 88
-69 108 -64 136 3 21 -2 46 -17 74 -12 24 -19 48 -17 55 3 6 25 17 50 23 24 7
47 20 51 29 4 11 -7 40 -29 77 -31 53 -35 64 -25 87 9 22 6 37 -20 94 -16 37
-30 70 -30 72 0 2 18 1 41 -2 30 -5 43 -3 50 7 16 25 10 35 -52 78 l-61 43 6
52 c20 153 19 213 -4 287 -20 66 -29 80 -93 145 -80 79 -183 136 -317 174
-100 29 -274 36 -350 15z m103 -3179 c34 -19 85 -41 114 -49 93 -28 441 -242
591 -364 l43 -35 -50 -29 c-84 -48 -186 -152 -223 -227 -31 -63 -33 -73 -33
-173 0 -118 -2 -120 -59 -63 -23 24 -27 35 -22 62 5 32 4 33 -13 18 -10 -9
-20 -16 -23 -16 -4 0 -25 34 -47 76 -34 62 -40 83 -35 110 5 29 -2 48 -54 136
-87 146 -110 204 -124 296 -6 45 -15 82 -19 82 -5 0 -16 -14 -24 -31 -16 -29
-17 -30 -35 -14 -33 30 -51 83 -57 170 -3 47 -3 85 1 85 4 0 35 -15 69 -34z
m981 -494 c26 -24 46 -66 46 -97 0 -23 -10 -31 -83 -65 -90 -41 -147 -83 -147
-107 0 -18 -9 -21 122 50 110 59 148 68 186 41 27 -19 52 -65 52 -97 0 -15
-33 -61 -95 -132 -52 -60 -95 -113 -95 -117 0 -4 9 -8 20 -8 11 0 42 25 72 57
110 119 115 123 146 123 54 0 100 -86 88 -163 -17 -103 -125 -234 -236 -286
-65 -30 -169 -39 -227 -21 -93 30 -222 148 -293 269 -59 101 -76 161 -61 225
25 110 135 252 235 303 100 52 226 63 270 25z m-3514 -217 c44 -23 47 -49 12
-105 -30 -48 -48 -90 -39 -90 3 0 43 38 89 85 76 77 87 85 122 85 44 0 96 -28
120 -65 36 -55 12 -125 -68 -198 l-31 -27 40 15 c74 30 106 77 115 170 5 59 5
60 38 63 42 4 94 -28 124 -76 18 -30 23 -51 23 -107 -1 -60 -6 -82 -36 -145
-68 -143 -151 -217 -298 -267 -89 -30 -218 -31 -295 -3 -142 54 -215 204 -203
420 7 136 45 211 122 246 40 18 129 17 165 -1z m430 -648 l0 -54 -116 -12
c-64 -7 -118 -11 -120 -9 -2 3 20 12 49 21 29 9 82 37 118 62 35 25 65 45 67
45 1 0 2 -24 2 -53z m-267 -84 c-7 -2 -19 -2 -25 0 -7 3 -2 5 12 5 14 0 19 -2
13 -5z m278 -108 c3 -16 18 -52 33 -80 28 -51 32 -108 11 -159 -7 -17 -5 -18
16 -12 13 5 38 10 55 13 29 5 32 2 50 -41 21 -50 25 -53 44 -31 19 23 43 18
75 -15 26 -27 29 -28 42 -12 12 15 13 15 11 -7 -2 -20 -52 -56 -273 -198 -148
-95 -274 -173 -278 -173 -4 0 3 15 17 33 60 79 92 194 76 280 -25 133 -152
311 -265 370 -27 14 -46 26 -40 27 5 0 66 7 135 15 190 22 192 22 240 21 41
-1 45 -3 51 -31z m3013 -85 c15 -5 31 -20 37 -34 10 -21 4 -39 -45 -137 -87
-177 -73 -191 25 -24 62 106 80 122 124 105 32 -12 73 -102 80 -175 3 -33 10
-101 16 -152 14 -111 7 -167 -27 -220 -73 -111 -280 -178 -473 -153 -154 20
-260 90 -319 210 -23 47 -27 68 -27 141 0 82 2 88 36 140 83 125 215 226 329
250 78 17 83 8 60 -111 -21 -107 -23 -130 -12 -130 9 0 42 150 42 188 0 38 29
83 63 97 39 17 58 18 91 5z"/>
<path d="M3796 5489 c-134 -19 -277 -166 -264 -274 2 -24 13 -35 53 -57 137
-76 353 -138 476 -138 95 0 122 9 177 63 49 47 72 85 72 118 0 65 -95 181
-185 224 -46 23 -170 58 -240 68 -16 2 -56 0 -89 -4z m182 -94 c97 -23 166
-60 217 -117 41 -46 45 -54 45 -103 0 -53 -1 -54 -37 -66 -49 -17 -205 -17
-313 0 -95 15 -152 36 -222 84 -37 25 -48 38 -48 59 0 37 83 125 135 143 52
18 144 18 223 0z"/>
<path d="M1317 4838 c-101 -32 -144 -74 -210 -211 -80 -162 -95 -243 -57 -304
21 -36 91 -75 164 -94 44 -11 48 -10 96 21 74 48 124 110 161 203 18 45 58
118 88 161 63 93 77 150 44 183 -20 20 -160 64 -199 62 -10 0 -50 -10 -87 -21z
m181 -76 l52 -17 -79 -160 c-43 -88 -96 -179 -116 -203 -38 -44 -105 -95 -141
-106 -26 -8 -78 37 -99 87 -14 33 -13 41 6 104 46 147 113 248 190 287 61 30
110 32 187 8z"/>
<path d="M2934 3854 c-42 -101 72 -288 136 -224 41 41 17 166 -42 227 -43 45
-75 44 -94 -3z"/>
<path d="M2720 3820 c-57 -57 16 -260 94 -260 32 0 46 25 46 82 0 67 -18 115
-59 158 -43 46 -53 48 -81 20z"/>
<path d="M2913 3539 c-32 -9 -54 -29 -32 -29 43 0 187 25 183 32 -7 11 -110 9
-151 -3z"/>
<path d="M2964 3500 c-152 -24 -204 -43 -265 -98 -111 -99 -106 -200 14 -276
79 -51 135 -66 241 -66 l93 0 28 -107 c15 -60 30 -114 32 -120 3 -8 -10 -15
-36 -19 -48 -8 -59 -29 -37 -73 14 -26 23 -30 86 -41 80 -13 135 -7 144 16 3
9 6 31 6 50 0 45 -35 69 -89 60 l-38 -6 -32 121 c-18 67 -31 122 -29 124 2 1
32 17 67 36 124 65 242 215 225 285 -17 67 -62 102 -162 123 -69 14 -113 13
-248 -9z m275 -704 c7 -8 11 -30 9 -48 -3 -28 -7 -33 -33 -36 -82 -10 -175 21
-175 58 0 34 174 56 199 26z"/>
<path d="M2852 1765 c-145 -18 -298 -38 -340 -46 -198 -33 -340 -170 -367
-351 -18 -120 113 -369 257 -489 79 -66 161 -106 277 -135 203 -52 431 -40
660 35 277 91 333 153 372 411 30 194 -37 434 -142 512 -55 41 -85 47 -429 91
-14 2 -144 -11 -288 -28z m519 -51 c63 -9 122 -25 145 -38 72 -40 125 -146
147 -297 20 -140 -22 -353 -84 -423 -41 -48 -173 -113 -284 -141 -129 -33
-361 -59 -453 -51 -273 25 -478 161 -587 391 -62 131 -68 230 -19 332 45 94
135 151 287 182 332 68 607 83 848 45z"/>
</g>
</svg>
